<svg xmlns:mydata="http://www.w3.org/2000/svg" xmlns="http://www.w3.org/2000/svg" xmlns:xlink="http://www.w3.org/1999/xlink" mydata:contrastcolor="C63663" mydata:template="Default" mydata:presentation="2.5" mydata:layouttype="undefined" mydata:specialfontid="undefined" mydata:id1="453" mydata:id2="453" mydata:companyname="progenerator" mydata:companytagline="" version="1.1" width="332.72180810191117" height="58.75940805508793" style=""><rect id="backgroundrect" width="100%" height="100%" x="0" y="0" fill="none" stroke="none"/>
    
<g class="currentLayer" style=""><title>Layer 1</title><g fill="#ffffff" fill-rule="none" stroke="none" stroke-width="1" stroke-linecap="butt" stroke-linejoin="miter" stroke-miterlimit="10" stroke-dasharray="" stroke-dashoffset="0" font-family="none" font-weight="none" font-size="none" text-anchor="none" style="mix-blend-mode: normal" id="svg_1" class="selected" fill-opacity="1">
        <g data-paper-data="{&quot;isGlobalGroup&quot;:true}" id="svg_2" fill="#ffffff" fill-opacity="1">
            <g data-paper-data="{&quot;isPrimaryText&quot;:true}" fill="#ffffff" fill-rule="nonzero" id="svg_3" fill-opacity="1">
                <path d="M13.618246218261717,3.063981503906234 h-11.96683 c-0.90316,0 -1.6369700000000003,0.7338200000000001 -1.6369700000000003,1.6369700000000003 v12.30551 v18.23248 v22.63537 c0,0.90316 0.7338200000000001,1.6369700000000003 1.6369700000000003,1.6369700000000003 h4.79802 c0.90316,0 1.6369700000000003,-0.7338200000000001 1.6369700000000003,-1.6369700000000003 v-20.9984 c0,-0.90316 0.7338200000000001,-1.6369700000000003 1.6369700000000003,-1.6369700000000003 h3.89486 c6.2092,0 11.23301,-5.02381 11.23301,-11.23301 v-2.145 v-4.85447 v-2.70947 c0,-6.2092 -5.02381,-11.23301 -11.23301,-11.23301 zM16.77929621826172,21.860931503906272 v2.145 c0,1.74987 -1.41118,3.16105 -3.16105,3.16105 h-3.89486 c-0.90316,0 -1.6369700000000003,-0.7338200000000001 -1.6369700000000003,-1.6369700000000003 v-8.52354 v-4.23355 c0,-0.90316 0.7338200000000001,-1.6369700000000003 1.6369700000000003,-1.6369700000000003 h3.89486 c1.74987,0 3.16105,1.41118 3.16105,3.16105 v2.70947 z" data-paper-data="{&quot;glyphName&quot;:&quot;P&quot;,&quot;glyphIndex&quot;:0,&quot;firstGlyphOfWord&quot;:true,&quot;word&quot;:1}" id="svg_4" fill="#ffffff" fill-opacity="1">
                </path>
                <path d="M41.27742621826172,7.128191503906237 h-11.96683 c-0.90316,0 -1.6369700000000003,0.7338200000000001 -1.6369700000000003,1.6369700000000003 v12.30551 v18.23248 v14.56341 c0,0.90316 0.7338200000000001,1.6369700000000003 1.6369700000000003,1.6369700000000003 h4.79802 c0.90316,0 1.6369700000000003,-0.7338200000000001 1.6369700000000003,-1.6369700000000003 v-12.92643 c0,-0.90316 0.7338200000000001,-1.6369700000000003 1.6369700000000003,-1.6369700000000003 h1.6369700000000003 c1.41118,1.01605 5.02381,4.68513 5.41894,14.61985 c0,0.90316 0.7338200000000001,1.58052 1.6369700000000003,1.58052 h4.79802 c0.90316,0 1.6369700000000003,-0.79026 1.58052,-1.6934200000000001 c-0.22579000000000005,-8.01552 -2.31434,-13.26512 -4.57223,-16.65196 c2.7659200000000004,-2.0321 4.62868,-5.36249 4.62868,-9.08802 v-2.145 v-4.85447 v-2.70947 c0,-6.2092 -5.02381,-11.23301 -11.23301,-11.23301 zM44.43847621826171,25.925141503906275 v2.145 c0,1.74987 -1.41118,3.16105 -3.16105,3.16105 h-3.89486 c-0.90316,0 -1.6369700000000003,-0.7338200000000001 -1.6369700000000003,-1.6369700000000003 v-8.52354 v-4.23355 c0,-0.90316 0.7338200000000001,-1.6369700000000003 1.6369700000000003,-1.6369700000000003 h3.89486 c1.74987,0 3.16105,1.41118 3.16105,3.16105 v2.70947 z" data-paper-data="{&quot;glyphName&quot;:&quot;r&quot;,&quot;glyphIndex&quot;:1,&quot;word&quot;:1}" id="svg_5" fill="#ffffff" fill-opacity="1">
                </path>
                <path d="M68.93661621826172,7.128191503906237 h-2.37079 c-6.2092,0 -11.23301,5.02381 -11.23301,11.23301 v12.86999 v1.18539 c0,6.15276 5.02381,11.23301 11.23301,11.23301 h2.37079 c6.2092,0 11.23301,-5.08026 11.23301,-11.23301 v-1.46763 v-12.58775 c0,-6.2092 -5.02381,-11.23301 -11.23301,-11.23301 zM72.09766621826171,32.41658150390623 c0,1.74987 -1.41118,3.16105 -3.16105,3.16105 h-2.37079 c-1.74987,0 -3.16105,-1.41118 -3.16105,-3.16105 v-1.18539 v-12.86999 c0,-1.74987 1.41118,-3.16105 3.16105,-3.16105 h2.37079 c1.74987,0 3.16105,1.41118 3.16105,3.16105 v12.58775 zM57.42136621826171,55.44708150390625 h20.65972 c0.90316,0 1.6369700000000003,-0.7338200000000001 1.6369700000000003,-1.6369700000000003 v-4.79802 c0,-0.90316 -0.7338200000000001,-1.6369700000000003 -1.6369700000000003,-1.6369700000000003 h-20.65972 c-0.90316,0 -1.6369700000000003,0.7338200000000001 -1.6369700000000003,1.6369700000000003 v4.79802 c0,0.90316 0.7338200000000001,1.6369700000000003 1.6369700000000003,1.6369700000000003 z" data-paper-data="{&quot;glyphName&quot;:&quot;o&quot;,&quot;glyphIndex&quot;:2,&quot;word&quot;:1}" id="svg_6" fill="#ffffff" fill-opacity="1">
                </path>
                <path d="M96.59579621826171,55.44708150390625 c6.2092,0 11.23301,-5.02381 11.23301,-11.23301 v-15.35367 c0,-0.90316 -0.7338200000000001,-1.6369700000000003 -1.6369700000000003,-1.6369700000000003 h-9.14446 c-0.90316,0 -1.6369700000000003,0.7338200000000001 -1.6369700000000003,1.6369700000000003 v4.79802 c0,0.90316 0.7338200000000001,1.6369700000000003 1.6369700000000003,1.6369700000000003 h1.0725 c0.90316,0 1.6369700000000003,0.7338200000000001 1.6369700000000003,1.6369700000000003 v7.2817 c0,1.74987 -1.41118,3.16105 -3.16105,3.16105 h-2.37079 c-1.74987,0 -3.16105,-1.41118 -3.16105,-3.16105 v-3.49973 v-9.48315 v-12.86999 c0,-1.74987 1.41118,-3.16105 3.16105,-3.16105 h2.37079 c1.74987,0 3.16105,1.41118 3.16105,3.16105 v3.72552 c0,0.90316 0.7338200000000001,1.6369700000000003 1.6369700000000003,1.6369700000000003 h4.79802 c0.90316,0 1.6369700000000003,-0.7338200000000001 1.6369700000000003,-1.6369700000000003 v-3.72552 c0,-6.2092 -5.02381,-11.23301 -11.23301,-11.23301 h-2.37079 c-6.2092,0 -11.23301,5.02381 -11.23301,11.23301 v12.86999 v9.48315 v3.49973 c0,6.2092 5.02381,11.23301 11.23301,11.23301 z" data-paper-data="{&quot;glyphName&quot;:&quot;g&quot;,&quot;glyphIndex&quot;:3,&quot;word&quot;:1}" id="svg_7" fill="#ffffff" fill-opacity="1">
                </path>
                <path d="M110.65117621826172,31.231191503906246 v9.48315 v13.09578 c0,0.90316 0.7338200000000001,1.6369700000000003 1.6369700000000003,1.6369700000000003 h21.50643 c0.90316,0 1.6369700000000003,-0.7338200000000001 1.6369700000000003,-1.6369700000000003 v-4.79802 c0,-0.90316 -0.7338200000000001,-1.6369700000000003 -1.6369700000000003,-1.6369700000000003 h-13.43446 c-0.90316,0 -1.6369700000000003,-0.7338200000000001 -1.6369700000000003,-1.6369700000000003 v-5.02381 v-3.7819700000000003 c0,-0.90316 0.7338200000000001,-1.6369700000000003 1.6369700000000003,-1.6369700000000003 h3.04815 c0.90316,0 1.6369700000000003,-0.7338200000000001 1.6369700000000003,-1.6369700000000003 v-4.79802 c0,-0.90316 -0.7338200000000001,-1.6369700000000003 -1.6369700000000003,-1.6369700000000003 h-3.04815 c-0.90316,0 -1.6369700000000003,-0.7338200000000001 -1.6369700000000003,-1.6369700000000003 v-8.74933 c0,-0.90316 0.7338200000000001,-1.6369700000000003 1.6369700000000003,-1.6369700000000003 h13.43446 c0.90316,0 1.6369700000000003,-0.7338200000000001 1.6369700000000003,-1.6369700000000003 v-4.79802 c0,-0.90316 -0.7338200000000001,-1.6369700000000003 -1.6369700000000003,-1.6369700000000003 h-21.50643 c-0.90316,0 -1.6369700000000003,0.7338200000000001 -1.6369700000000003,1.6369700000000003 z" data-paper-data="{&quot;glyphName&quot;:&quot;e&quot;,&quot;glyphIndex&quot;:4,&quot;word&quot;:1}" id="svg_8" fill="#ffffff" fill-opacity="1">
                </path>
                <path d="M155.0187662182617,31.17474150390626 c-0.22579000000000005,-0.50803 -0.45158000000000004,-1.01605 -0.6773700000000001,-1.46763 c-3.3868400000000003,-7.7897300000000005 -7.2252600000000005,-16.42617 -7.90262,-21.22419 c-0.11289000000000002,-0.79026 -0.8467100000000001,-1.35474 -1.6369700000000003,-1.35474 h-4.91092 c-0.90316,0 -1.6369700000000003,0.7338200000000001 -1.6369700000000003,1.6369700000000003 v45.1014 c0,0.90316 0.7338200000000001,1.6369700000000003 1.6369700000000003,1.6369700000000003 h4.79802 c0.90316,0 1.6369700000000003,-0.7338200000000001 1.6369700000000003,-1.6369700000000003 v-22.46603 c0.22579000000000005,0.50803 0.45158000000000004,1.01605 0.6773700000000001,1.52408 c3.3868400000000003,7.73328 7.2252600000000005,16.42617 7.90262,21.22419 c0.11289000000000002,0.79026 0.79026,1.35474 1.6369700000000003,1.35474 h4.91092 c0.90316,0 1.6369700000000003,-0.7338200000000001 1.6369700000000003,-1.6369700000000003 v-45.1014 c0,-0.90316 -0.7338200000000001,-1.6369700000000003 -1.6369700000000003,-1.6369700000000003 h-4.79802 c-0.90316,0 -1.6369700000000003,0.7338200000000001 -1.6369700000000003,1.6369700000000003 z" data-paper-data="{&quot;glyphName&quot;:&quot;n&quot;,&quot;glyphIndex&quot;:5,&quot;word&quot;:1}" id="svg_9" fill="#ffffff" fill-opacity="1">
                </path>
                <path d="M165.91309621826173,31.231191503906246 v9.48315 v13.09578 c0,0.90316 0.7338200000000001,1.6369700000000003 1.6369700000000003,1.6369700000000003 h21.50643 c0.90316,0 1.6369700000000003,-0.7338200000000001 1.6369700000000003,-1.6369700000000003 v-4.79802 c0,-0.90316 -0.7338200000000001,-1.6369700000000003 -1.6369700000000003,-1.6369700000000003 h-13.43446 c-0.90316,0 -1.6369700000000003,-0.7338200000000001 -1.6369700000000003,-1.6369700000000003 v-5.02381 v-3.7819700000000003 c0,-0.90316 0.7338200000000001,-1.6369700000000003 1.6369700000000003,-1.6369700000000003 h3.04815 c0.90316,0 1.6369700000000003,-0.7338200000000001 1.6369700000000003,-1.6369700000000003 v-4.79802 c0,-0.90316 -0.7338200000000001,-1.6369700000000003 -1.6369700000000003,-1.6369700000000003 h-3.04815 c-0.90316,0 -1.6369700000000003,-0.7338200000000001 -1.6369700000000003,-1.6369700000000003 v-8.74933 c0,-0.90316 0.7338200000000001,-1.6369700000000003 1.6369700000000003,-1.6369700000000003 h13.43446 c0.90316,0 1.6369700000000003,-0.7338200000000001 1.6369700000000003,-1.6369700000000003 v-4.79802 c0,-0.90316 -0.7338200000000001,-1.6369700000000003 -1.6369700000000003,-1.6369700000000003 h-21.50643 c-0.90316,0 -1.6369700000000003,0.7338200000000001 -1.6369700000000003,1.6369700000000003 z" data-paper-data="{&quot;glyphName&quot;:&quot;e&quot;,&quot;glyphIndex&quot;:6,&quot;word&quot;:1}" id="svg_10" fill="#ffffff" fill-opacity="1">
                </path>
                <path d="M207.11962621826171,7.128191503906237 h-11.96683 c-0.90316,0 -1.6369700000000003,0.7338200000000001 -1.6369700000000003,1.6369700000000003 v12.30551 v18.23248 v14.56341 c0,0.90316 0.7338200000000001,1.6369700000000003 1.6369700000000003,1.6369700000000003 h4.79802 c0.90316,0 1.6369700000000003,-0.7338200000000001 1.6369700000000003,-1.6369700000000003 v-12.92643 c0,-0.90316 0.7338200000000001,-1.6369700000000003 1.6369700000000003,-1.6369700000000003 h1.6369700000000003 c1.41118,1.01605 5.02381,4.68513 5.41894,14.61985 c0,0.90316 0.7338200000000001,1.58052 1.6369700000000003,1.58052 h4.79802 c0.90316,0 1.6369700000000003,-0.79026 1.58052,-1.6934200000000001 c-0.22579000000000005,-8.01552 -2.31434,-13.26512 -4.57223,-16.65196 c2.7659200000000004,-2.0321 4.62868,-5.36249 4.62868,-9.08802 v-2.145 v-4.85447 v-2.70947 c0,-6.2092 -5.02381,-11.23301 -11.23301,-11.23301 zM210.2806762182617,25.925141503906275 v2.145 c0,1.74987 -1.41118,3.16105 -3.16105,3.16105 h-3.89486 c-0.90316,0 -1.6369700000000003,-0.7338200000000001 -1.6369700000000003,-1.6369700000000003 v-8.52354 v-4.23355 c0,-0.90316 0.7338200000000001,-1.6369700000000003 1.6369700000000003,-1.6369700000000003 h3.89486 c1.74987,0 3.16105,1.41118 3.16105,3.16105 v2.70947 z" data-paper-data="{&quot;glyphName&quot;:&quot;r&quot;,&quot;glyphIndex&quot;:7,&quot;word&quot;:1}" id="svg_11" fill="#ffffff" fill-opacity="1">
                </path>
                <path d="M234.77881621826174,7.128191503906237 h-2.37079 c-6.2092,0 -11.23301,5.02381 -11.23301,11.23301 v35.50536 c0,0.90316 0.7338200000000001,1.6369700000000003 1.6369700000000003,1.6369700000000003 h4.79802 c0.90316,0 1.6369700000000003,-0.7338200000000001 1.6369700000000003,-1.6369700000000003 v-9.99117 c0,-0.90316 0.7338200000000001,-1.6369700000000003 1.6369700000000003,-1.6369700000000003 h5.41894 c0.90316,0 1.6369700000000003,0.7338200000000001 1.6369700000000003,1.6369700000000003 v9.99117 c0,0.90316 0.7338200000000001,1.6369700000000003 1.6369700000000003,1.6369700000000003 h4.79802 c0.90316,0 1.6369700000000003,-0.7338200000000001 1.6369700000000003,-1.6369700000000003 v-35.50536 c0,-6.2092 -5.02381,-11.23301 -11.23301,-11.23301 zM229.2469762182617,32.58592150390626 v-14.22472 c0,-1.74987 1.41118,-3.16105 3.16105,-3.16105 h2.37079 c1.74987,0 3.16105,1.41118 3.16105,3.16105 v14.22472 c0,0.90316 -0.7338200000000001,1.6369700000000003 -1.6369700000000003,1.6369700000000003 h-5.41894 c-0.90316,0 -1.6369700000000003,-0.7338200000000001 -1.6369700000000003,-1.6369700000000003 z" data-paper-data="{&quot;glyphName&quot;:&quot;a&quot;,&quot;glyphIndex&quot;:8,&quot;word&quot;:1}" id="svg_12" fill="#ffffff" fill-opacity="1">
                </path>
                <path d="M250.47116621826171,15.200151503906227 h5.08026 c0.90316,0 1.6369700000000003,0.7338200000000001 1.6369700000000003,1.6369700000000003 v37.02944 c0,0.90316 0.7338200000000001,1.6369700000000003 1.6369700000000003,1.6369700000000003 h4.79802 c0.90316,0 1.6369700000000003,-0.7338200000000001 1.6369700000000003,-1.6369700000000003 v-37.02944 c0,-0.90316 0.7338200000000001,-1.6369700000000003 1.6369700000000003,-1.6369700000000003 h5.08026 c0.90316,0 1.6369700000000003,-0.7338200000000001 1.6369700000000003,-1.6369700000000003 v-4.79802 c0,-0.90316 -0.7338200000000001,-1.6369700000000003 -1.6369700000000003,-1.6369700000000003 h-21.50643 c-0.90316,0 -1.6369700000000003,0.7338200000000001 -1.6369700000000003,1.6369700000000003 v4.79802 c0,0.90316 0.7338200000000001,1.6369700000000003 1.6369700000000003,1.6369700000000003 z" data-paper-data="{&quot;glyphName&quot;:&quot;t&quot;,&quot;glyphIndex&quot;:9,&quot;word&quot;:1}" id="svg_13" fill="#ffffff" fill-opacity="1">
                </path>
                <path d="M290.04072621826174,7.128191503906237 h-2.37079 c-6.2092,0 -11.23301,5.02381 -11.23301,11.23301 v12.86999 v1.18539 c0,6.15276 5.02381,11.23301 11.23301,11.23301 h2.37079 c6.2092,0 11.23301,-5.08026 11.23301,-11.23301 v-1.46763 v-12.58775 c0,-6.2092 -5.02381,-11.23301 -11.23301,-11.23301 zM293.2017762182617,32.41658150390623 c0,1.74987 -1.41118,3.16105 -3.16105,3.16105 h-2.37079 c-1.74987,0 -3.16105,-1.41118 -3.16105,-3.16105 v-1.18539 v-12.86999 c0,-1.74987 1.41118,-3.16105 3.16105,-3.16105 h2.37079 c1.74987,0 3.16105,1.41118 3.16105,3.16105 v12.58775 zM278.5254762182617,55.44708150390625 h20.65972 c0.90316,0 1.6369700000000003,-0.7338200000000001 1.6369700000000003,-1.6369700000000003 v-4.79802 c0,-0.90316 -0.7338200000000001,-1.6369700000000003 -1.6369700000000003,-1.6369700000000003 h-20.65972 c-0.90316,0 -1.6369700000000003,0.7338200000000001 -1.6369700000000003,1.6369700000000003 v4.79802 c0,0.90316 0.7338200000000001,1.6369700000000003 1.6369700000000003,1.6369700000000003 z" data-paper-data="{&quot;glyphName&quot;:&quot;o&quot;,&quot;glyphIndex&quot;:10,&quot;word&quot;:1}" id="svg_14" fill="#ffffff" fill-opacity="1">
                </path>
                <path d="M317.69990621826173,7.128191503906237 h-11.96683 c-0.90316,0 -1.6369700000000003,0.7338200000000001 -1.6369700000000003,1.6369700000000003 v12.30551 v18.23248 v14.56341 c0,0.90316 0.7338200000000001,1.6369700000000003 1.6369700000000003,1.6369700000000003 h4.79802 c0.90316,0 1.6369700000000003,-0.7338200000000001 1.6369700000000003,-1.6369700000000003 v-12.92643 c0,-0.90316 0.7338200000000001,-1.6369700000000003 1.6369700000000003,-1.6369700000000003 h1.6369700000000003 c1.41118,1.01605 5.02381,4.68513 5.41894,14.61985 c0,0.90316 0.7338200000000001,1.58052 1.6369700000000003,1.58052 h4.79802 c0.90316,0 1.6369700000000003,-0.79026 1.58052,-1.6934200000000001 c-0.22579000000000005,-8.01552 -2.31434,-13.26512 -4.57223,-16.65196 c2.7659200000000004,-2.0321 4.62868,-5.36249 4.62868,-9.08802 v-2.145 v-4.85447 v-2.70947 c0,-6.2092 -5.02381,-11.23301 -11.23301,-11.23301 zM320.8609562182617,25.925141503906275 v2.145 c0,1.74987 -1.41118,3.16105 -3.16105,3.16105 h-3.89486 c-0.90316,0 -1.6369700000000003,-0.7338200000000001 -1.6369700000000003,-1.6369700000000003 v-8.52354 v-4.23355 c0,-0.90316 0.7338200000000001,-1.6369700000000003 1.6369700000000003,-1.6369700000000003 h3.89486 c1.74987,0 3.16105,1.41118 3.16105,3.16105 v2.70947 z" data-paper-data="{&quot;glyphName&quot;:&quot;r&quot;,&quot;glyphIndex&quot;:11,&quot;lastGlyphOfWord&quot;:true,&quot;word&quot;:1}" id="svg_15" fill="#ffffff" fill-opacity="1">
                </path>
            </g>
        </g>
    </g></g></svg>