<svg xmlns:mydata="http://www.w3.org/2000/svg" xmlns="http://www.w3.org/2000/svg" xmlns:xlink="http://www.w3.org/1999/xlink" mydata:contrastcolor="C63663" mydata:template="Default" mydata:presentation="2.5" mydata:layouttype="undefined" mydata:specialfontid="undefined" mydata:id1="453" mydata:id2="453" mydata:companyname="progenerator" mydata:companytagline="" version="1.1" width="169.5488844565342" height="154.21053650542365"><rect id="backgroundrect" width="100%" height="100%" x="0" y="0" fill="none" stroke="none"/>
    
<g class="currentLayer" style=""><title>Layer 1</title><g fill="#242424" fill-rule="none" stroke="#0b0bd5" stroke-width="1" stroke-linecap="butt" stroke-linejoin="miter" stroke-miterlimit="10" stroke-dasharray="" stroke-dashoffset="0" font-family="none" font-weight="none" font-size="none" text-anchor="none" style="mix-blend-mode: normal" id="svg_1" class="selected" fill-opacity="1" opacity="1" filter="" stroke-opacity="1">
        <g data-paper-data="{&quot;isGlobalGroup&quot;:true}" id="svg_2" fill="#242424" fill-opacity="1" opacity="1" filter="" stroke="#0b0bd5" stroke-opacity="1">
            <g data-paper-data="{&quot;isIcon&quot;:&quot;true&quot;,&quot;iconType&quot;:&quot;icon&quot;,&quot;rawIconId&quot;:&quot;6865&quot;,&quot;selectedEffects&quot;:{&quot;container&quot;:&quot;hexagon_simple_filled_rounded_rotated&quot;,&quot;transformation&quot;:&quot;&quot;,&quot;pattern&quot;:&quot;&quot;},&quot;fillRule&quot;:&quot;nonzero&quot;,&quot;relativeBoundsIconToContainer&quot;:{&quot;top&quot;:-0.009278220045470175,&quot;left&quot;:2.214678656914598e-16},&quot;widthRatioIconToContainer&quot;:0.702071533316602,&quot;heightRatioIconToContainer&quot;:0.8123464851010882,&quot;bounds&quot;:{&quot;x&quot;:190.39565464174342,&quot;y&quot;:114.99999999999997,&quot;width&quot;:169.20869071651316,&quot;height&quot;:152.24772171815735},&quot;iconStyle&quot;:&quot;standalone&quot;}" fill-rule="evenodd" id="svg_3" fill="#242424" fill-opacity="1" opacity="1" filter="" stroke="#0b0bd5" stroke-opacity="1">
                <g data-paper-data="{&quot;isPathIcon&quot;:true}" id="svg_4" fill="#242424" fill-opacity="1" opacity="1" filter="" stroke="#0b0bd5" stroke-opacity="1">
                    <path d="M166.8341714111328,89.00901126464845 c4.39533,-7.61265 4.39533,-15.22497 0,-22.83696 l-30.76494,-53.2869 c-4.39499,-7.61299 -10.98798,-11.41898 -19.77796,-11.41898 h-61.52989 c-8.78998,0 -15.38297,3.80599 -19.77796,11.41898 l-30.76494,53.2869 c-4.39533,7.6119900000000005 -4.39533,15.224310000000001 0,22.83696 l30.76494,53.2869 c4.39533,7.6119900000000005 10.98798,11.41798 19.77796,11.41798 h61.52989 c8.78998,0 15.38297,-3.80599 19.77796,-11.41798 zM79.34033141113281,22.27113126464843 c0,-4.38099 3.16199,-7.93299 7.45099,-7.93299 c4.29199,0 7.6599900000000005,3.55199 7.6599900000000005,7.93299 c0,2.87699 -1.5,5.38699 -3.97499,6.77799 v13.27198 c0,2.313 -1.447,4.18699 -3.71299,4.18699 c-2.263,0 -3.71199,-1.874 -3.71199,-4.18699 v-13.49698 c-2.475,-1.428 -3.7109900000000002,-3.82999 -3.7109900000000002,-6.55299 zM26.128431411132823,68.23705126464844 c0,-9.11398 7.23799,-16.77497 16.16697,-16.77497 h87.04284 c8.93098,0 15.58597,7.66099 15.58597,16.77497 v46.33592 h-118.79578 zM48.611391411132814,126.62294126464843 c-2.107,0 -3.81599,-1.743 -3.81599,-3.89499 c0,-2.15 1.709,-3.89399 3.81599,-3.89399 h73.50087 c2.108,0 3.81499,1.743 3.81499,3.89399 c0,2.152 -1.707,3.89499 -3.81499,3.89499 zM61.04036141113281,138.01692126464843 c-2.107,0 -3.81599,-1.743 -3.81599,-3.89499 c0,-2.151 1.709,-3.8959900000000003 3.81599,-3.8959900000000003 h49.30091 c2.109,0 3.81599,1.745 3.81599,3.8959900000000003 c0,2.152 -1.707,3.89499 -3.81599,3.89499 z" fill-opacity="1" fill="#242424" id="svg_5" opacity="1" filter="" stroke="#0b0bd5" stroke-opacity="1"/>
                    <path d="M48.42239141113282,78.25303126464843 c0,5.99699 4.76299,10.85898 10.63998,10.85898 c5.87599,0 10.63798,-4.8619900000000005 10.63798,-10.85898 c0,-5.99599 -4.76199,-10.85998 -10.63798,-10.85998 c-5.87699,0 -10.63998,4.86399 -10.63998,10.85998 z" fill="#242424" id="svg_6" fill-opacity="1" opacity="1" filter="" stroke="#0b0bd5" stroke-opacity="1"/>
                    <path d="M102.83429141113282,78.25303126464843 c0,5.99699 4.76499,10.85898 10.63998,10.85898 c5.87399,0 10.63898,-4.8619900000000005 10.63898,-10.85898 c0,-5.99599 -4.76499,-10.85998 -10.63898,-10.85998 c-5.87499,0 -10.63998,4.86399 -10.63998,10.85998 z" fill="#242424" id="svg_7" fill-opacity="1" opacity="1" filter="" stroke="#0b0bd5" stroke-opacity="1"/>
                </g>
            </g>
        </g>
    </g></g></svg>